<svg width="206" height="39" viewBox="0 0 206 39" fill="none" xmlns="http://www.w3.org/2000/svg">
<path d="M92.6465 37.9526H97.4336C99.2603 37.9526 100.226 36.9868 100.226 35.1392V6.54248C100.226 4.63184 99.2603 3.75 97.4336 3.75H92.6465C90.8198 3.75 89.854 4.71582 89.854 6.54248V35.1392C89.854 36.9868 90.8198 37.9526 92.6465 37.9526ZM107.911 37.9526H112.677C114.524 37.9526 115.469 36.9868 115.469 35.1392V6.54248C115.469 4.63184 114.524 3.75 112.677 3.75H107.911C106.063 3.75 105.097 4.71582 105.097 6.54248V35.1392C105.097 36.9868 106.063 37.9526 107.911 37.9526Z" fill="white" fill-opacity="0.96"/>
</svg>
